<svg width="37" height="29" viewBox="0 0 37 29" fill="none" xmlns="http://www.w3.org/2000/svg">
<g opacity="0.15">
<path fill-rule="evenodd" clip-rule="evenodd" d="M0 2.061C0 0.922743 0.922741 0 2.061 0H26.1769C27.3152 0 28.2379 0.922741 28.2379 2.061V16.3603C28.2379 17.4986 27.3152 18.4213 26.1769 18.4213H2.061C0.922741 18.4213 0 17.4986 0 16.3603V2.061Z" transform="translate(7.62036 6.57379) rotate(7)" stroke="black" stroke-width="0.9"/>
<path d="M2.45911 18.4213C1.79951 18.4214 1.16752 18.1582 0.705161 17.6909C0.242804 17.2235 -0.0111459 16.5912 0.000375614 15.936V2.44267C0.000375614 1.09362 1.10119 0 2.45911 0H25.7903C27.1482 0 28.249 1.09362 28.249 2.44267" transform="translate(3.33588 1.11494) rotate(7)" stroke="black" stroke-width="0.9"/>
<path fill-rule="evenodd" clip-rule="evenodd" d="M0 1.8C0 0.805889 0.805887 0 1.8 0H6.78947C7.78359 0 8.58947 0.805887 8.58947 1.8V3.13867C8.58947 4.13278 7.78359 4.93867 6.78947 4.93867H1.8C0.805887 4.93867 0 4.13278 0 3.13867V1.8Z" transform="translate(22.2592 18.269) rotate(7)" stroke="black" stroke-width="0.9"/>
<path d="M0 0H23.3312" transform="translate(9.29877 12.9915) rotate(7)" stroke="black" stroke-width="0.9"/>
</g>
</svg>
