<svg width="68" height="68" viewBox="0 0 68 68" fill="none" xmlns="http://www.w3.org/2000/svg">
<g opacity="0.15">
<path fill-rule="evenodd" clip-rule="evenodd" d="M0 0H9.948V5.976H0V0Z" transform="translate(40.6136 17.9387) rotate(39)" stroke="black" stroke-width="0.9"/>
<path d="M0 3.372C0 1.5097 1.5097 0 3.372 0C5.2343 0 6.744 1.5097 6.744 3.372" transform="translate(43.976 16.3226) rotate(39)" stroke="black" stroke-width="0.9"/>
<path d="M0 3.3V0" transform="translate(23.2141 36.9083) rotate(39)" stroke="black" stroke-width="0.9"/>
<path d="M0 7.62V0" transform="translate(28.4786 35.6127) rotate(39)" stroke="black" stroke-width="0.9"/>
<path d="M0 6.192V0" transform="translate(30.1259 38.7841) rotate(39)" stroke="black" stroke-width="0.9"/>
<path d="M0 10.392V0" transform="translate(35.315 37.5818) rotate(39)" stroke="black" stroke-width="0.9"/>
<path d="M0 8.712V0" transform="translate(36.8036 40.949) rotate(39)" stroke="black" stroke-width="0.9"/>
<path d="M18.348 0H24.348C25.6735 0 26.748 1.07452 26.748 2.4V32.928C26.748 34.2535 25.6735 35.328 24.348 35.328H2.4C1.07452 35.328 0 34.2535 0 32.928V2.4C0 1.07452 1.07452 0 2.4 0H8.4" transform="translate(33.238 13.6801) rotate(39)" stroke="black" stroke-width="0.9"/>
<path d="M16.056 0H21.576C21.9074 0 22.176 0.268629 22.176 0.6V29.496C22.176 29.8274 21.9074 30.096 21.576 30.096H0.6C0.268629 30.096 0 29.8274 0 29.496V0.6C0 0.268629 0.268629 0 0.6 0H6.12" transform="translate(33.3729 17.1555) rotate(39)" stroke="black" stroke-width="0.9"/>
</g>
</svg>
