<svg width="67" height="67" viewBox="0 0 67 67" fill="none" xmlns="http://www.w3.org/2000/svg">
<g opacity="0.15">
<path d="M0 0H8.12175" transform="translate(18.5068 26.8852) rotate(-30)" stroke="black" stroke-width="0.9"/>
<path d="M0 0H8.12175" transform="translate(19.9094 29.3146) rotate(-30)" stroke="black" stroke-width="0.9"/>
<path d="M0 3.80975L4.83875 12.1888L6.125 9.016L9.506 9.49375L4.03025 0" transform="translate(41.2614 40.4254) rotate(-30)" stroke="black" stroke-width="0.9"/>
<path d="M9.506 3.80975L4.66725 12.1888L3.381 9.016L0 9.49375L5.47575 0" transform="translate(27.3851 48.4369) rotate(-30)" stroke="black" stroke-width="0.9"/>
<path fill-rule="evenodd" clip-rule="evenodd" d="M5.39 10.78C8.36681 10.78 10.78 8.36681 10.78 5.39C10.78 2.41319 8.36681 0 5.39 0C2.41319 0 0 2.41319 0 5.39C0 8.36681 2.41319 10.78 5.39 10.78Z" transform="translate(29.1779 36.793) rotate(-30)" stroke="black" stroke-width="0.9"/>
<path fill-rule="evenodd" clip-rule="evenodd" d="M8.3545 0.686L9.898 0L11.0863 1.2005L12.7767 1.11475L13.4382 2.65825L15.0553 3.185L15.1165 4.8755L16.4272 5.9535L15.876 7.546L16.709 9.016L15.6187 10.3145L15.8638 11.9928L14.3815 12.8013L14.014 14.455L12.3357 14.6632L11.3925 16.072L9.73875 15.6678L8.3545 16.6355L6.97025 15.6678L5.32875 16.072L4.37325 14.6632L2.695 14.455L2.3275 12.8013L0.84525 11.9928L1.09025 10.3145L0 9.016L0.833 7.546L0.28175 5.9535L1.5925 4.8755L1.65375 3.185L3.27075 2.65825L3.93225 1.11475L5.62275 1.2005L6.811 0L8.3545 0.686V0.686Z" transform="translate(25.1467 35.7397) rotate(-30)" stroke="black" stroke-width="0.9"/>
<path d="M11.4905 0H0" transform="translate(37.5187 51.9503) rotate(-30)" stroke="black" stroke-width="0.9"/>
<path d="M1.764 35.966C0.718667 35.6611 0 34.7029 0 33.614V2.45C0 1.0969 1.0969 0 2.45 0H24.8675C26.2206 0 27.3175 1.0969 27.3175 2.45V33.614C27.3153 34.6916 26.6093 35.6412 25.578 35.9538" transform="translate(12.6228 24.6808) rotate(-30)" stroke="black" stroke-width="0.9"/>
</g>
</svg>
