<svg width="42" height="42" viewBox="0 0 42 42" fill="none" xmlns="http://www.w3.org/2000/svg">
<g opacity="0.15">
<path fill-rule="evenodd" clip-rule="evenodd" d="M0 1.8C0 0.805887 0.805888 0 1.8 0H16.95C17.9441 0 18.75 0.805887 18.75 1.8V22.95C18.75 23.9441 17.9441 24.75 16.95 24.75H1.8C0.805887 24.75 0 23.9441 0 22.95V1.8Z" transform="translate(6.16132 15.1429) rotate(-32)" stroke="black" stroke-width="0.9"/>
<path fill-rule="evenodd" clip-rule="evenodd" d="M0 0.45C0 0.201472 0.201472 0 0.45 0H13.1325C13.381 0 13.5825 0.201472 13.5825 0.45V5.34C13.5825 5.58853 13.381 5.79 13.1325 5.79H0.45C0.201472 5.79 0 5.58853 0 5.34V0.45Z" transform="translate(10.1139 16.5997) rotate(-32)" stroke="black" stroke-width="0.9"/>
<path fill-rule="evenodd" clip-rule="evenodd" d="M0 0.45C0 0.201472 0.201472 0 0.45 0H2.1975C2.44603 0 2.6475 0.201472 2.6475 0.45V1.3425C2.6475 1.59103 2.44603 1.7925 2.1975 1.7925H0.45C0.201472 1.7925 0 1.59103 0 1.3425V0.45Z" transform="translate(14.7202 23.9714) rotate(-32)" stroke="black" stroke-width="0.9"/>
<path fill-rule="evenodd" clip-rule="evenodd" d="M0 0.45C0 0.201472 0.201472 0 0.45 0H2.1975C2.44603 0 2.6475 0.201472 2.6475 0.45V1.3425C2.6475 1.59103 2.44603 1.7925 2.1975 1.7925H0.45C0.201472 1.7925 0 1.59103 0 1.3425V0.45Z" transform="translate(19.3633 21.0701) rotate(-32)" stroke="black" stroke-width="0.9"/>
<path fill-rule="evenodd" clip-rule="evenodd" d="M0 0.45C0 0.201472 0.201472 0 0.45 0H2.1975C2.44603 0 2.6475 0.201472 2.6475 0.45V1.3425C2.6475 1.59103 2.44603 1.7925 2.1975 1.7925H0.45C0.201472 1.7925 0 1.59103 0 1.3425V0.45Z" transform="translate(24 18.1727) rotate(-32)" stroke="black" stroke-width="0.9"/>
<path fill-rule="evenodd" clip-rule="evenodd" d="M0 0.45C0 0.201472 0.201472 0 0.45 0H2.1975C2.44603 0 2.6475 0.201472 2.6475 0.45V1.3425C2.6475 1.59103 2.44603 1.7925 2.1975 1.7925H0.45C0.201472 1.7925 0 1.59103 0 1.3425V0.45Z" transform="translate(16.7313 27.1897) rotate(-32)" stroke="black" stroke-width="0.9"/>
<path fill-rule="evenodd" clip-rule="evenodd" d="M0 0.45C0 0.201472 0.201472 0 0.45 0H2.1975C2.44603 0 2.6475 0.201472 2.6475 0.45V1.3425C2.6475 1.59103 2.44603 1.7925 2.1975 1.7925H0.45C0.201472 1.7925 0 1.59103 0 1.3425V0.45Z" transform="translate(21.3743 24.2884) rotate(-32)" stroke="black" stroke-width="0.9"/>
<path fill-rule="evenodd" clip-rule="evenodd" d="M0 0.45C0 0.201472 0.201472 0 0.45 0H2.1975C2.44603 0 2.6475 0.201472 2.6475 0.45V1.3425C2.6475 1.59103 2.44603 1.7925 2.1975 1.7925H0.45C0.201472 1.7925 0 1.59103 0 1.3425V0.45Z" transform="translate(26.011 21.3911) rotate(-32)" stroke="black" stroke-width="0.9"/>
<path fill-rule="evenodd" clip-rule="evenodd" d="M0 0.45C0 0.201472 0.201472 0 0.45 0H2.1975C2.44603 0 2.6475 0.201472 2.6475 0.45V1.3425C2.6475 1.59103 2.44603 1.7925 2.1975 1.7925H0.45C0.201472 1.7925 0 1.59103 0 1.3425V0.45Z" transform="translate(18.7463 30.4144) rotate(-32)" stroke="black" stroke-width="0.9"/>
<path fill-rule="evenodd" clip-rule="evenodd" d="M0 0.45C0 0.201472 0.201472 0 0.45 0H2.1975C2.44603 0 2.6475 0.201472 2.6475 0.45V1.3425C2.6475 1.59103 2.44603 1.7925 2.1975 1.7925H0.45C0.201472 1.7925 0 1.59103 0 1.3425V0.45Z" transform="translate(23.3893 27.5131) rotate(-32)" stroke="black" stroke-width="0.9"/>
<path fill-rule="evenodd" clip-rule="evenodd" d="M0 0.45C0 0.201472 0.201472 0 0.45 0H2.1975C2.44603 0 2.6475 0.201472 2.6475 0.45V1.3425C2.6475 1.59103 2.44603 1.7925 2.1975 1.7925H0.45C0.201472 1.7925 0 1.59103 0 1.3425V0.45Z" transform="translate(28.0261 24.6158) rotate(-32)" stroke="black" stroke-width="0.9"/>
</g>
</svg>
