<svg width="65" height="64" viewBox="0 0 65 64" fill="none" xmlns="http://www.w3.org/2000/svg">
<g opacity="0.15">
<path fill-rule="evenodd" clip-rule="evenodd" d="M35.4667 6.45202L34.7721 6.45204C34.4856 4.96393 33.2225 3.87124 31.6667 3.87122L21.85 3.87125L18.8733 0.258082C18.7466 0.064488 18.5566 2.80593e-05 18.3666 3.14554e-05L4.43333 7.89004e-06C3.04001 -1.20677e-05 1.89998 1.16134 1.90002 2.58079L1.90001 6.53429C0.810544 6.82268 2.74848e-05 7.83597 1.86828e-05 9.03284L8.36765e-06 28.389C-2.92695e-06 29.8084 1.14 30.9698 2.53333 30.9698L35.4666 30.9698C36.8599 30.9697 38 29.8084 37.9999 28.3889L38 9.03287C38 7.61338 36.86 6.45198 35.4667 6.45202ZM3.16675 2.58076C3.16671 1.871 3.73672 1.29035 4.43344 1.29038L18.05 1.29033L21.0267 4.90349C21.1534 5.09709 21.3434 5.16155 21.5334 5.16154L31.6667 5.16158C32.4901 5.16159 33.1867 5.67775 33.44 6.452L3.16672 6.45197L3.16675 2.58076ZM35.4667 29.6794C36.1633 29.6794 36.7333 29.0988 36.7334 28.389L36.7334 9.03288C36.7334 8.32314 36.1634 7.74246 35.4667 7.74245L34.2 7.74242L2.53336 7.74248C1.83664 7.74245 1.26663 8.3231 1.26667 9.03286L1.26666 28.389C1.26665 29.0987 1.83662 29.6794 2.53334 29.6794L35.4667 29.6794Z" transform="translate(9.98218 22.1835) rotate(-16)" fill="black"/>
<path d="M8.23331 0H0.633309C0.253309 0 0 0.258056 0 0.645178C0 1.0323 0.253309 1.29036 0.633309 1.29036H8.23331C8.61331 1.29036 8.86662 1.0323 8.86662 0.645178C8.86662 0.258056 8.61331 0 8.23331 0Z" transform="translate(16.4805 31.0594) rotate(-16)" fill="black"/>
<path d="M8.23331 0H0.633309C0.253309 0 0 0.258056 0 0.645178C0 1.0323 0.253309 1.29036 0.633309 1.29036H8.23331C8.61331 1.29036 8.86662 1.0323 8.86662 0.645178C8.86669 0.258056 8.61331 0 8.23331 0Z" transform="translate(17.1918 33.5403) rotate(-16)" fill="black"/>
</g>
</svg>
