<svg width="47" height="47" viewBox="0 0 47 47" fill="none" xmlns="http://www.w3.org/2000/svg">
<g opacity="0.15">
<path d="M13.9672 3.70425V1.11375C13.9628 0.500513 13.4667 0.00449276 12.8535 0H1.11375C0.500513 0.00449276 0.00449276 0.500513 0 1.11375V3.70425" transform="translate(12.1097 19.9218) rotate(40)" stroke="black" stroke-width="0.9"/>
<path fill-rule="evenodd" clip-rule="evenodd" d="M0 0H15.246V1.518H0V0Z" transform="translate(9.27997 22.3829) rotate(40)" stroke="black" stroke-width="0.9"/>
<path d="M10.9312 14.4275C9.03903 14.423 7.50749 12.8878 7.5075 10.9955C7.56817 9.07863 8.03791 7.19683 8.88525 5.47629V5.47629C9.66861 3.87708 9.23744 1.94843 7.84766 0.835042C6.45788 -0.278347 4.48162 -0.278347 3.09184 0.835042C1.70206 1.94843 1.2709 3.87708 2.05425 5.47629V5.47629C2.90159 7.19683 3.37133 9.07863 3.432 10.9955C3.432 12.891 1.89544 14.4275 0 14.4275" transform="translate(22.5401 9.84007) rotate(40)" stroke="black" stroke-width="0.9"/>
<path fill-rule="evenodd" clip-rule="evenodd" d="M4.7355 9.471C7.35084 9.471 9.471 7.35084 9.471 4.7355C9.471 2.12016 7.35084 0 4.7355 0C2.12016 0 0 2.12016 0 4.7355C0 7.35084 2.12016 9.471 4.7355 9.471Z" transform="translate(28.5509 19.6955) rotate(40)" stroke="black" stroke-width="0.9"/>
<path d="M0 0H3.12675" transform="translate(29.0846 23.9881) rotate(40)" stroke="black" stroke-width="0.9"/>
<path d="M0 0H3.12675" transform="translate(26.7831 26.7309) rotate(40)" stroke="black" stroke-width="0.9"/>
<path d="M0 0H5.96475" transform="translate(26.8468 24.4474) rotate(40)" stroke="black" stroke-width="0.9"/>
</g>
</svg>
