<svg width="46" height="46" viewBox="0 0 46 46" fill="none" xmlns="http://www.w3.org/2000/svg">
<g opacity="0.15">
<path fill-rule="evenodd" clip-rule="evenodd" d="M12.015 0C5.3793 0 0 5.3793 0 12.015C0 18.6507 5.3793 24.03 12.015 24.03C18.6507 24.03 24.03 18.6507 24.03 12.015H12.015V0Z" transform="translate(7.54153 30.3954) rotate(-72)" stroke="black" stroke-width="0.9"/>
<path fill-rule="evenodd" clip-rule="evenodd" d="M0 0V12.015H12.015C12.015 8.82842 10.7491 5.77236 8.49589 3.51911C6.24264 1.26586 3.18658 0 0 0Z" transform="translate(9.52087 15.5663) rotate(-72)" stroke="black" stroke-width="0.9"/>
<path d="M0 2.205L2.205 0" transform="translate(9.71774 15.6302) rotate(-72)" stroke="black" stroke-width="0.9"/>
<path d="M0 4.563L4.563 0" transform="translate(10.3768 15.8444) rotate(-72)" stroke="black" stroke-width="0.9"/>
<path d="M0 6.561L6.57 0" transform="translate(11.3783 16.1698) rotate(-72)" stroke="black" stroke-width="0.9"/>
<path d="M0 8.271L8.271 0" transform="translate(12.6622 16.587) rotate(-72)" stroke="black" stroke-width="0.9"/>
<path d="M0 7.101L7.101 0" transform="translate(15.0009 14.6025) rotate(-72)" stroke="black" stroke-width="0.9"/>
<path d="M0 5.157L5.157 0" transform="translate(17.7838 12.2703) rotate(-72)" stroke="black" stroke-width="0.9"/>
<path d="M0 2.934L2.934 0" transform="translate(20.8466 10.067) rotate(-72)" stroke="black" stroke-width="0.9"/>
</g>
</svg>
