<svg width="45" height="44" viewBox="0 0 45 44" fill="none" xmlns="http://www.w3.org/2000/svg">
<g opacity="0.15">
<path d="M0.169167 0.15794C0.0635833 0.266979 0 0.417555 0 0.567555C0 0.717556 0.0583333 0.867555 0.169167 0.977171C0.279417 1.08102 0.431667 1.14448 0.583333 1.14448C0.735 1.14448 0.886667 1.08102 0.9975 0.977171C1.1025 0.867555 1.16667 0.717556 1.16667 0.567555C1.16667 0.417555 1.1025 0.266979 0.9975 0.15794C0.781667 -0.0497522 0.390833 -0.0555214 0.169167 0.15794Z" transform="translate(37.6057 23.3787) rotate(-27)" fill="black"/>
<path fill-rule="evenodd" clip-rule="evenodd" d="M8.16668 10.6194L10.2888 11.6913C11.1387 12.113 11.6667 12.9593 11.6667 13.8997L11.6667 14.6174C11.6667 15.0807 11.6667 16.1654 5.83333 16.1653C7.1105e-06 16.1654 -2.36655e-06 15.0807 -6.68914e-06 14.6174L3.23644e-05 13.8536C-6.60814e-06 12.949 0.498184 12.1182 1.30085 11.685L3.50002 10.6136L3.49998 10.3967C2.55032 9.88438 1.8824 9.03921 1.50969 7.87843C0.944417 7.58185 0.58335 7.00495 0.583324 6.35767L0.583363 5.7807C0.583317 5.2511 0.830683 4.75781 1.24484 4.43247C1.3236 3.88493 1.46069 3.3732 1.65378 2.90591C1.74007 2.69649 1.81359 2.54132 1.87308 2.4138C1.9367 2.27846 1.97468 2.19759 1.99004 2.1126C2.01292 1.98636 1.98586 1.85112 1.91856 1.51495C1.86319 1.23979 1.82642 0.988215 1.80192 0.773587C1.76514 0.462073 1.93724 0.172453 2.22953 0.0536118C2.52118 -0.0663807 2.85078 0.019567 3.04673 0.266478C3.16226 0.411863 3.34247 0.566501 3.58167 0.725708C4.22042 1.15152 4.95775 1.1919 5.46232 1.1532C5.58307 1.14396 5.70673 1.13881 5.83333 1.13879C8.50908 1.13877 10.0479 2.2442 10.4119 4.42495C10.8319 4.75035 11.0833 5.24589 11.0833 5.78073L11.0833 6.35767C11.0833 7.00493 10.7222 7.58186 10.157 7.87783C9.78424 9.038 9.11634 9.88324 8.16665 10.3961L8.16668 10.6194ZM5.83331 15.0109C8.6561 15.0109 10.1366 14.7057 10.5 14.4871L10.5 13.8998C10.5 13.3984 10.2182 12.9467 9.76443 12.7222L9.76033 12.72L7.56235 11.61C7.21524 11.434 7.00001 11.0855 7 10.7013L7 9.6559L7.35233 9.50538C8.23725 9.12919 8.81239 8.40979 9.11105 7.30496L9.19448 6.99804L9.50135 6.90342C9.74576 6.8284 9.91668 6.60401 9.91664 6.35766L9.91665 5.78075C9.91664 5.56956 9.79531 5.37573 9.60053 5.27361L9.32866 5.13228L9.29252 4.83054C9.08423 3.07497 8.01793 2.29266 5.83391 2.29265C5.73883 2.29264 5.64608 2.29668 5.55567 2.30418C4.66027 2.37172 3.8366 2.20611 3.15115 1.81842C3.20075 2.26327 3.12901 2.48017 2.93122 2.90075C2.91271 2.9403 2.89279 2.9829 2.87142 3.02941C2.83073 3.11787 2.78489 3.22035 2.73405 3.34324C2.55092 3.7852 2.42902 4.28418 2.37125 4.8259L2.33918 5.13056L2.06561 5.27477C1.87073 5.37748 1.74997 5.57132 1.74999 5.78074L1.74998 6.35766C1.74997 6.60343 1.92091 6.82843 2.16533 6.90344L2.47216 6.99806L2.5556 7.30498C2.85421 8.40978 3.4294 9.12921 4.31431 9.50536L4.66669 9.65593L4.66665 10.6967C4.66663 11.0838 4.43971 11.4432 4.08859 11.6129L1.83811 12.709C1.43267 12.9282 1.16664 13.3713 1.16669 13.853L1.16668 14.4871C1.53006 14.7057 3.01057 15.0109 5.83331 15.0109Z" transform="translate(7.93005 24.2425) rotate(-27)" fill="black"/>
<path d="M0.583333 1.15385H6.41667C6.73925 1.15385 7 0.895962 7 0.576923C7 0.257885 6.73925 0 6.41667 0H0.583333C0.26075 0 0 0.257885 0 0.576923C0 0.895962 0.26075 1.15385 0.583333 1.15385Z" transform="translate(21.719 20.4671) rotate(-27)" fill="black"/>
<path d="M1.16667 0H0.583333C0.26075 0 0 0.257885 0 0.576923C0 0.895962 0.26075 1.15385 0.583333 1.15385H1.16667C1.48925 1.15385 1.75 0.895962 1.75 0.576923C1.75 0.257885 1.48925 0 1.16667 0Z" transform="translate(26.1716 29.2058) rotate(-27)" fill="black"/>
<path d="M1.75 0H0.583333C0.26075 0 0 0.257885 0 0.576923C0 0.895962 0.26075 1.15385 0.583333 1.15385H1.75C2.07258 1.15385 2.33333 0.895962 2.33333 0.576923C2.33333 0.257885 2.07258 0 1.75 0Z" transform="translate(28.7703 27.8817) rotate(-27)" fill="black"/>
<path d="M1.16667 0H0.583333C0.26075 0 0 0.257885 0 0.576923C0 0.895962 0.26075 1.15385 0.583333 1.15385H1.16667C1.48925 1.15385 1.75 0.895962 1.75 0.576923C1.75 0.257885 1.48925 0 1.16667 0Z" transform="translate(31.8889 26.2927) rotate(-27)" fill="black"/>
<path d="M1.75 0H0.583333C0.26075 0 0 0.257885 0 0.576923C0 0.895962 0.26075 1.15385 0.583333 1.15385H1.75C2.07258 1.15385 2.33333 0.895962 2.33333 0.576923C2.33333 0.257885 2.07258 0 1.75 0Z" transform="translate(34.4876 24.9686) rotate(-27)" fill="black"/>
<path d="M13.4167 0H0.583333C0.26075 0 0 0.257885 0 0.576923C0 0.895962 0.26075 1.15385 0.583333 1.15385H13.4167C13.7393 1.15385 14 0.895962 14 0.576923C14 0.257885 13.7393 0 13.4167 0Z" transform="translate(23.2905 23.5513) rotate(-27)" fill="black"/>
<path d="M13.4167 0H0.583333C0.26075 0 0 0.257885 0 0.576923C0 0.895962 0.26075 1.15385 0.583333 1.15385H13.4167C13.7393 1.15385 14 0.895962 14 0.576923C14 0.257885 13.7393 0 13.4167 0Z" transform="translate(24.862 26.6356) rotate(-27)" fill="black"/>
<path fill-rule="evenodd" clip-rule="evenodd" d="M32.2712 5.76923L21.5834 5.76925L21.5833 1.33446C21.5833 0.598273 20.9784 7.90447e-06 20.2341 -1.94704e-05L14.7653 1.02465e-05C14.0216 1.47252e-05 13.4167 0.598266 13.4167 1.33445L13.4166 5.76921L2.72885 5.76923C1.22443 5.76922 -7.19364e-06 6.98022 -1.34442e-06 8.46807L-2.38323e-05 27.3018C-1.38389e-05 28.7891 1.22443 30 2.72885 30L32.2718 30C33.7756 30 35 28.789 35 27.3012L35 8.46809C35 6.98018 33.7756 5.76924 32.2712 5.76923ZM14.5833 1.33444C14.5833 1.23524 14.6656 1.15387 14.7654 1.15386L20.2341 1.15389C20.3344 1.15386 20.4167 1.23523 20.4167 1.33448L20.4167 5.76926L20.4167 9.0508C20.4167 9.14945 20.3344 9.23077 20.2341 9.23082L14.7653 9.23077C14.6656 9.23078 14.5834 9.14944 14.5834 9.05079L14.5833 5.76928L14.5833 1.33444ZM32.2711 28.8462C33.1327 28.8461 33.8333 28.1532 33.8333 27.3012L33.8333 8.46808C33.8333 7.61594 33.1327 6.9231 32.2711 6.92305L21.5833 6.92307L21.5833 9.05078C21.5833 9.78634 20.9784 10.3846 20.234 10.3846L14.7653 10.3846C14.0216 10.3846 13.4166 9.78634 13.4167 9.05078L13.4167 6.92307L2.72882 6.92305C1.86721 6.92307 1.16665 7.61596 1.16665 8.46805L1.16666 27.3011C1.16664 28.1533 1.86721 28.8462 2.72882 28.8462H32.2711Z" transform="translate(0.0975342 16.5797) rotate(-27)" fill="black"/>
<path fill-rule="evenodd" clip-rule="evenodd" d="M4.66665 2.3077C4.66668 3.5804 3.62016 4.61538 2.33335 4.61541C1.04651 4.61535 3.44841e-05 3.58038 5.82729e-06 2.30768C3.15532e-05 1.035 1.04649 1.0913e-06 2.33336 -1.90966e-06C3.62015 2.17627e-05 4.66667 1.03503 4.66665 2.3077ZM3.50002 2.30766C3.50002 1.67135 2.97677 1.15382 2.33334 1.15382C1.68996 1.15385 1.16666 1.67135 1.16671 2.30769C1.16669 2.94405 1.68996 3.46153 2.33334 3.4615C2.97675 3.46155 3.5 2.94402 3.50002 2.30766Z" transform="translate(14.3969 11.2363) rotate(-27)" fill="black"/>
</g>
</svg>
