<svg width="50" height="50" viewBox="0 0 50 50" fill="none" xmlns="http://www.w3.org/2000/svg">
<g opacity="0.15">
<path d="M28.2944 0H0.602028C0.269719 0 0 0.269662 0 0.601971C0 0.93428 0.269719 1.204 0.602028 1.204H28.2945C28.6268 1.204 28.8965 0.93428 28.8965 0.601971C28.8964 0.269662 28.6267 0 28.2944 0Z" transform="translate(24.1003 44.5272) rotate(-46)" fill="black"/>
<path fill-rule="evenodd" clip-rule="evenodd" d="M0.602043 -1.98e-06L4.21409 2.55257e-05C4.54639 2.02437e-05 4.81613 0.269675 4.81611 0.601958L4.8161 7.82609C4.81612 8.15841 4.54641 8.42813 4.21406 8.42809L0.602036 8.42813C0.269731 8.42813 -3.84439e-06 8.15839 -9.8796e-06 7.82613L-1.92193e-05 0.602021C1.86505e-05 0.269717 0.269738 3.30199e-06 0.602043 -1.98e-06ZM1.20407 7.22412L3.61207 7.22411L3.61213 1.20403L1.20407 1.20402L1.20407 7.22412Z" transform="translate(19.7401 38.6428) rotate(-46)" fill="black"/>
<path fill-rule="evenodd" clip-rule="evenodd" d="M0.602043 -1.98e-06L4.21409 2.55257e-05C4.54639 2.02437e-05 4.8161 0.269696 4.81611 0.602045L4.81612 13.8463C4.81611 14.1785 4.54639 14.4483 4.21408 14.4483L0.602018 14.4483C0.269712 14.4483 2.04749e-05 14.1786 -6.00635e-06 13.8462L-1.92193e-05 0.602021C1.86505e-05 0.269717 0.269738 3.30199e-06 0.602043 -1.98e-06ZM1.20401 13.2442L3.61208 13.2442L3.61207 1.20401L1.20401 1.20399L1.20401 13.2442Z" transform="translate(20.4279 29.2643) rotate(-46)" fill="black"/>
<path fill-rule="evenodd" clip-rule="evenodd" d="M0.602043 -1.98e-06L4.21409 2.55257e-05C4.54639 2.02437e-05 4.81613 0.269675 4.81611 0.602045L4.81611 11.4382C4.81612 11.7705 4.5464 12.0402 4.21409 12.0402L0.602029 12.0402C0.269723 12.0402 -1.0904e-05 11.7705 5.01328e-06 11.4382L-1.92193e-05 0.602021C1.86505e-05 0.269717 0.269738 3.30199e-06 0.602043 -1.98e-06ZM1.20398 10.8361L3.61205 10.8362L3.61207 1.20401L1.20401 1.20399L1.20398 10.8361Z" transform="translate(27.1784 25.7405) rotate(-46)" fill="black"/>
<path fill-rule="evenodd" clip-rule="evenodd" d="M0.602043 -1.98e-06L4.21409 2.55257e-05C4.54639 2.02437e-05 4.81613 0.269675 4.81611 0.602045L4.8161 18.6623C4.81613 18.9946 4.54641 19.2643 4.21406 19.2643L0.602038 19.2643C0.269733 19.2643 -1.56433e-06 18.9946 1.4353e-05 18.6623L-1.92193e-05 0.602021C1.86505e-05 0.269717 0.269738 3.30199e-06 0.602043 -1.98e-06ZM1.20399 18.0603L3.61206 18.0603L3.61207 1.20401L1.20401 1.20399L1.20399 18.0603Z" transform="translate(27.0001 15.5256) rotate(-46)" fill="black"/>
<path fill-rule="evenodd" clip-rule="evenodd" d="M9.42644e-06 2.40809C1.11134e-05 1.08003 1.08001 1.00859e-05 2.40806 1.17728e-05C3.73612 1.34598e-05 4.8161 1.08001 4.81612 2.40804C4.81612 3.7361 3.73612 4.81612 2.40806 4.81612C1.08001 4.81612 -1.27066e-05 3.73608 9.42644e-06 2.40809ZM1.20405 2.40804C1.20404 3.0714 1.74345 3.61204 2.40806 3.61203C3.07267 3.61202 3.61202 3.07141 3.61205 2.40803C3.61206 1.74467 3.07266 1.20402 2.40805 1.20403C1.74344 1.20404 1.20404 1.74461 1.20405 2.40804Z" transform="translate(12.8113 31.9517) rotate(-46)" fill="black"/>
<path fill-rule="evenodd" clip-rule="evenodd" d="M9.42644e-06 2.40809C1.11134e-05 1.08003 1.08001 1.00859e-05 2.40806 1.17728e-05C3.73612 1.34598e-05 4.8161 1.08001 4.81612 2.40804C4.81612 3.7361 3.73612 4.81612 2.40806 4.81612C1.08001 4.81612 -1.27066e-05 3.73608 9.42644e-06 2.40809ZM1.20405 2.40804C1.20404 3.0714 1.74345 3.61204 2.40806 3.61203C3.07267 3.61202 3.61204 3.07147 3.61205 2.40803C3.61206 1.74467 3.07266 1.20402 2.40805 1.20403C1.74344 1.20404 1.20404 1.74461 1.20405 2.40804Z" transform="translate(13.4991 22.5732) rotate(-46)" fill="black"/>
<path fill-rule="evenodd" clip-rule="evenodd" d="M9.42644e-06 2.40809C1.11134e-05 1.08003 1.08001 1.00859e-05 2.40806 1.17728e-05C3.73612 1.34598e-05 4.8161 1.08001 4.81612 2.40804C4.81612 3.7361 3.73612 4.81612 2.40806 4.81612C1.08001 4.81612 -1.27066e-05 3.73608 9.42644e-06 2.40809ZM1.20405 2.40804C1.20404 3.0714 1.74345 3.61204 2.40806 3.61203C3.07267 3.61202 3.61202 3.07141 3.61205 2.40803C3.61206 1.74467 3.07266 1.20402 2.40805 1.20403C1.74344 1.20404 1.20404 1.74461 1.20405 2.40804Z" transform="translate(20.2496 19.0494) rotate(-46)" fill="black"/>
<path fill-rule="evenodd" clip-rule="evenodd" d="M9.42644e-06 2.40809C1.11134e-05 1.08003 1.08001 1.00859e-05 2.40806 1.17728e-05C3.73612 1.34598e-05 4.8161 1.08001 4.81612 2.40804C4.81612 3.7361 3.73612 4.81612 2.40806 4.81612C1.08001 4.81612 -1.27066e-05 3.73608 9.42644e-06 2.40809ZM1.20405 2.40804C1.20404 3.0714 1.74345 3.61204 2.40806 3.61203C3.07267 3.61202 3.61202 3.07141 3.61205 2.40803C3.61206 1.74467 3.07266 1.20402 2.40805 1.20403C1.74344 1.20404 1.20404 1.74461 1.20405 2.40804Z" transform="translate(20.0713 8.83453) rotate(-46)" fill="black"/>
<path d="M5.69892 0.176088C5.46413 -0.0586959 5.08244 -0.0586959 4.84766 0.176088L0.176088 4.84766C-0.0586959 5.08244 -0.0586959 5.46413 0.176088 5.69892C0.2941 5.81569 0.448177 5.87472 0.60231 5.87472C0.755201 5.87472 0.909335 5.81693 1.02735 5.69892L5.69892 1.02735C5.9337 0.792564 5.9337 0.410871 5.69892 0.176088Z" transform="translate(19.4118 13.9542) rotate(-46)" fill="black"/>
<path d="M4.63358 1.12708L0.76626 0.0242197C0.442361 -0.0696936 0.113664 0.118133 0.0233624 0.438421C-0.0681242 0.758708 0.117276 1.09102 0.436322 1.1825L4.30365 2.28537C4.35901 2.301 4.41443 2.30822 4.46862 2.30822C4.73111 2.30822 4.97188 2.13603 5.04773 1.87116C5.13927 1.55212 4.95387 1.21857 4.63358 1.12708Z" transform="translate(17.6144 21.6221) rotate(-46)" fill="black"/>
<path d="M5.6114 0.22675C5.40433 -0.0333175 5.02625 -0.0754769 4.76618 0.13041L0.227015 3.74969C-0.0330531 3.958 -0.0763977 4.33603 0.131916 4.59609C0.251114 4.74537 0.426919 4.82247 0.602668 4.82247C0.733888 4.82247 0.866348 4.77912 0.977137 4.69243L5.5163 1.07316C5.77637 0.864842 5.81972 0.486818 5.6114 0.22675Z" transform="translate(12.7302 27.5894) rotate(-46)" fill="black"/>
</g>
</svg>
