<svg width="52" height="52" viewBox="0 0 52 52" fill="none" xmlns="http://www.w3.org/2000/svg">
<g opacity="0.15">
<path fill-rule="evenodd" clip-rule="evenodd" d="M22.8092 4.08015L19.7269 4.08014L19.7269 3.4973C19.7269 2.85612 19.1721 2.33153 18.4939 2.33151L16.6446 2.33153L16.6446 1.7486C16.6446 0.757722 15.8432 -1.09736e-05 14.7952 -1.30521e-05L11.0963 -7.66745e-06C10.0483 -9.74591e-06 9.24696 0.816037 9.24695 1.7486L9.24696 2.33147L7.39759 2.33145C6.71944 2.33146 6.16464 2.85604 6.16464 3.49721L6.16464 4.08008L3.08231 4.08006C1.35619 4.08008 1.24992e-06 5.36245 -4.3177e-06 6.99444L-1.5533e-05 32.0582C1.12342e-05 33.6903 1.35628 34.9726 3.08232 34.9726L22.8093 34.9726C24.5354 34.9726 25.8916 33.6902 25.8916 32.0582L25.8916 6.99452C25.8916 5.36249 24.5353 4.08014 22.8092 4.08015ZM7.39753 3.49729L9.8634 3.49728C10.2333 3.49728 10.4798 3.26416 10.4799 2.91444L10.4798 1.74861C10.4798 1.39888 10.7264 1.16576 11.0963 1.16576L14.7951 1.16576C15.165 1.16575 15.4115 1.45722 15.4115 1.7486L15.4115 2.91437C15.4115 3.2641 15.6581 3.49723 16.028 3.49721L18.4939 3.49722L18.4939 4.66298L18.4939 7.57736L7.39752 7.57737L7.39751 4.66304L7.39753 3.49729ZM22.8093 33.8069C23.8573 33.8069 24.6586 33.0492 24.6586 32.0583V6.99451C24.6586 6.0036 23.8573 5.24591 22.8093 5.24591L19.727 5.2459L19.7269 7.57745C19.7269 8.21863 19.1721 8.74319 18.494 8.74322L7.39757 8.74319C6.71945 8.74321 6.16463 8.21861 6.16464 7.57743L6.16463 5.2459L3.08231 5.24592C2.03431 5.24592 1.23292 6.00362 1.23292 6.99453L1.23292 32.0583C1.23292 33.0492 2.03432 33.8069 3.08232 33.8069L22.8093 33.8069Z" transform="translate(7.51666 14.8625) rotate(-23)" fill="black"/>
<path fill-rule="evenodd" clip-rule="evenodd" d="M-1.52724e-05 7.57743C1.27028e-05 3.38069 3.57553 5.23653e-06 8.01409 8.4754e-06C12.4527 -1.63773e-05 16.0282 3.38071 16.0282 7.57742C16.0282 11.7742 12.4527 15.1549 8.0141 15.1549C3.57552 15.1549 -3.23175e-06 11.7742 -1.52724e-05 7.57743ZM1.23295 7.57744C1.23294 11.133 4.25364 13.9891 8.0141 13.9891C11.7746 13.9891 14.7952 11.133 14.7952 7.57743C14.7952 4.02188 11.7745 1.16576 8.0141 1.16577C4.25364 1.16578 1.23294 4.02186 1.23295 7.57744Z" transform="translate(17.2945 25.276) rotate(-23)" fill="black"/>
<path d="M5.11662 6.00361L3.69874 7.34424V0.582847C3.69874 0.233125 3.45218 0 3.0823 0C2.71243 0 2.46587 0.233125 2.46587 0.582847V7.34424L1.04799 6.00361C0.801428 5.77049 0.431552 5.77049 0.184919 6.00361C-0.0616398 6.23674 -0.0616398 6.58646 0.184919 6.81965L2.54534 9.05146C2.64611 9.22285 2.83677 9.32604 3.08238 9.32604C3.32798 9.32604 3.51857 9.22285 3.61942 9.05146L5.97983 6.81965C6.22639 6.58653 6.22639 6.23681 5.97983 6.00361C5.73306 5.77042 5.36318 5.77042 5.11662 6.00361Z" transform="translate(22.973 26.0317) rotate(-23)" fill="black"/>
</g>
</svg>
