<svg width="45" height="45" viewBox="0 0 45 45" fill="none" xmlns="http://www.w3.org/2000/svg">
<g opacity="0.15">
<path fill-rule="evenodd" clip-rule="evenodd" d="M0 2.061C0 0.922741 0.922741 0 2.061 0H18.3215C19.4598 0 20.3825 0.922741 20.3825 2.061V11.3232C20.3825 12.4615 19.4598 13.3842 18.3215 13.3842H2.061C0.922742 13.3842 0 12.4615 0 11.3232V2.061Z" transform="translate(13.4278 24.8925) rotate(-41)" stroke="black" stroke-width="0.9"/>
<path d="M1.77502 13.3842C1.29891 13.3843 0.842731 13.1931 0.508995 12.8535C0.175259 12.514 -0.00804528 12.0545 0.000271123 11.5785V1.77475C0.000271123 0.794583 0.794854 0 1.77502 0H18.6158C19.5959 0 20.3905 0.794583 20.3905 1.77475" transform="translate(8.41498 24.5367) rotate(-41)" stroke="black" stroke-width="0.9"/>
<path fill-rule="evenodd" clip-rule="evenodd" d="M0 1.79412C0 0.803257 0.803257 0 1.79412 0H4.40587C5.39674 0 6.2 0.803257 6.2 1.79412V1.79412C6.2 2.78499 5.39674 3.58825 4.40588 3.58825H1.79413C0.803258 3.58825 0 2.78499 0 1.79412V1.79412Z" transform="translate(26.8022 22.7239) rotate(-41)" stroke="black" stroke-width="0.9"/>
<path d="M0 0H16.8407" transform="translate(17.7001 27.114) rotate(-41)" stroke="black" stroke-width="0.9"/>
</g>
</svg>
